<svg width="41" height="38" viewBox="0 0 41 38" fill="none" xmlns="http://www.w3.org/2000/svg">
<rect x="3.25098" y="4.40625" width="37.4025" height="33.0393" rx="6.16733" fill="#6C5FBC"/>
<rect x="0.891536" y="0.891536" width="35.6194" height="31.2562" rx="5.2758" fill="#DBD9EE" stroke="#6C5FBC" stroke-width="1.78307"/>
<path d="M28.8691 10.6641L8.60349 10.5745" stroke="#6C5FBC" stroke-width="1.84442" stroke-linecap="round" stroke-linejoin="round"/>
<path d="M28.859 14.722L24.3502 14.6993C22.4852 14.6899 20.9762 12.8653 20.9822 10.6269C20.9882 8.38861 22.507 6.57923 24.372 6.58862L28.8809 6.61133" stroke="#6C5FBC" stroke-width="1.84442" stroke-linecap="round" stroke-linejoin="round"/>
<path d="M15.364 23.6457L9.47436 23.5765C8.99178 23.5741 8.58725 23.0983 8.57784 22.5192L8.53808 20.9924C8.52874 20.387 8.93593 19.8758 9.44044 19.8783L15.2642 19.9471L15.364 23.6457Z" stroke="#6C5FBC" stroke-width="1.84442" stroke-linecap="round" stroke-linejoin="round"/>
<path d="M24.6134 25.8454L16.2888 25.7377C15.8062 25.7353 15.4017 25.2596 15.3923 24.6807L15.2844 19.9309L28.8078 20.1042L28.8171 20.7094C28.8862 23.5778 26.9934 25.8837 24.6134 25.8454Z" stroke="#6C5FBC" stroke-width="1.84442" stroke-linecap="round" stroke-linejoin="round"/>
</svg>
