<svg width="12" height="17" viewBox="0 0 12 17" fill="none" xmlns="http://www.w3.org/2000/svg">
<path d="M9.29083 0.809742C6.98272 0.422794 4.61387 0.422794 2.30576 0.809742C1.46253 0.951107 0.791001 1.59846 0.621928 2.43782C-0.152628 6.28312 -0.19489 10.24 0.497359 14.101L0.779199 15.6729C0.866103 16.1576 1.45701 16.3514 1.81402 16.0122L5.21597 12.7803C5.5423 12.4703 6.05429 12.4703 6.38062 12.7803L9.78257 16.0122C10.1396 16.3514 10.7305 16.1576 10.8174 15.6729L11.0992 14.101C11.7915 10.24 11.7492 6.28312 10.9747 2.43782C10.8056 1.59846 10.1341 0.951107 9.29083 0.809742Z" fill="#6C5FBC"/>
</svg>
