<svg width="14.808350" height="19.131836" viewBox="0 0 14.8083 19.1318" fill="none" xmlns="http://www.w3.org/2000/svg" xmlns:xlink="http://www.w3.org/1999/xlink">
	<desc>
			Created with Pixso.
	</desc>
	<defs/>
	<path id="Icon" d="M2.75 5.42L3.07 8.23L2.39 8.28C1.32 8.37 0.44 9.17 0.27 10.23C-0.1 12.45 -0.1 14.7 0.27 16.92C0.44 17.98 1.32 18.78 2.39 18.87L3.87 18.99C6.22 19.17 8.58 19.17 10.93 18.99L12.41 18.87C13.48 18.78 14.36 17.98 14.53 16.92C14.89 14.7 14.89 12.45 14.53 10.23C14.36 9.17 13.48 8.37 12.41 8.28L11.73 8.23L12.04 5.42C12.08 5.06 12.08 4.7 12.04 4.34L12.02 4.13C11.78 1.98 10.09 0.28 7.94 0.03C7.58 -0.02 7.22 -0.02 6.86 0.03C4.71 0.28 3.02 1.98 2.78 4.13L2.75 4.34C2.71 4.7 2.71 5.06 2.75 5.42ZM7.77 1.5C7.52 1.47 7.28 1.47 7.03 1.5C5.57 1.67 4.41 2.83 4.25 4.3L4.23 4.5C4.2 4.75 4.2 5 4.23 5.26L4.55 8.12C6.45 7.99 8.35 7.99 10.25 8.12L10.57 5.26C10.6 5 10.6 4.75 10.57 4.5L10.55 4.3C10.38 2.83 9.23 1.67 7.77 1.5ZM3.99 9.64C6.26 9.46 8.54 9.46 10.81 9.64L12.29 9.76C12.68 9.79 13 10.09 13.07 10.47C13.4 12.53 13.4 14.62 13.07 16.68C13 17.06 12.68 17.36 12.29 17.39L10.81 17.51C8.54 17.69 6.26 17.69 3.99 17.51L2.51 17.39C2.11 17.36 1.8 17.06 1.73 16.68C1.4 14.62 1.4 12.53 1.73 10.47C1.8 10.09 2.11 9.79 2.51 9.76L3.99 9.64ZM7.4 12.09C6.58 12.09 5.91 12.76 5.91 13.58C5.91 14.4 6.58 15.06 7.4 15.06C8.22 15.06 8.88 14.4 8.88 13.58C8.88 12.76 8.22 12.09 7.4 12.09Z" fill="#A2A3A6" fill-opacity="1.000000" fill-rule="evenodd"/>
</svg>
