<svg width="16.591797" height="18.174805" viewBox="0 0 16.5918 18.1748" fill="none" xmlns="http://www.w3.org/2000/svg" xmlns:xlink="http://www.w3.org/1999/xlink">
	<desc>
			Created with Pixso.
	</desc>
	<defs/>
	<path id="Icon" d="M8.29 0C5.78 0 3.74 2.03 3.74 4.54C3.74 7.06 5.78 9.09 8.29 9.09C10.8 9.09 12.84 7.06 12.84 4.54C12.84 2.03 10.8 0 8.29 0ZM5.35 4.54C5.35 2.92 6.67 1.6 8.29 1.6C9.92 1.6 11.23 2.92 11.23 4.54C11.23 6.17 9.92 7.49 8.29 7.49C6.67 7.49 5.35 6.17 5.35 4.54ZM4.01 10.7C1.79 10.7 0 12.5 0 14.71L0 15.99C0 16.79 0.58 17.48 1.38 17.61C5.96 18.36 10.63 18.36 15.21 17.61C16 17.48 16.59 16.79 16.59 15.99L16.59 14.71C16.59 12.5 14.79 10.7 12.57 10.7L12.21 10.7C12.01 10.7 11.81 10.73 11.63 10.79L10.7 11.09C9.13 11.61 7.45 11.61 5.88 11.09L4.96 10.79C4.77 10.73 4.57 10.7 4.37 10.7L4.01 10.7ZM1.6 14.71C1.6 13.38 2.68 12.31 4.01 12.31L4.37 12.31C4.4 12.31 4.43 12.31 4.46 12.32L5.38 12.62C7.27 13.24 9.31 13.24 11.2 12.62L12.12 12.32C12.15 12.31 12.18 12.31 12.21 12.31L12.57 12.31C13.9 12.31 14.98 13.38 14.98 14.71L14.98 15.99C14.98 16 14.97 16.02 14.95 16.02C10.54 16.74 6.04 16.74 1.63 16.02C1.61 16.02 1.6 16 1.6 15.99L1.6 14.71Z" fill="#A2A3A6" fill-opacity="1.000000" fill-rule="evenodd"/>
</svg>
