<svg width="15" height="13" viewBox="0 0 15 13" fill="none" xmlns="http://www.w3.org/2000/svg">
<path fill-rule="evenodd" clip-rule="evenodd" d="M0.404297 4.48039C0.404297 2.26465 2.34816 0.558594 4.62984 0.558594C5.806 0.558594 6.84094 1.11008 7.58362 1.82366C8.3263 1.11008 9.36124 0.558594 10.5374 0.558594C12.8191 0.558594 14.7629 2.26465 14.7629 4.48039C14.7629 5.9982 14.1157 7.33296 13.2189 8.46121C12.3237 9.58753 11.1527 10.5434 10.0315 11.3202C9.6033 11.6168 9.17006 11.8905 8.77356 12.0925C8.40125 12.2821 7.97315 12.4558 7.58362 12.4558C7.1941 12.4558 6.76599 12.2821 6.39368 12.0925C5.99718 11.8905 5.56394 11.6169 5.1357 11.3202C4.01451 10.5434 2.84352 9.58753 1.94832 8.46122C1.05157 7.33296 0.404297 5.9982 0.404297 4.48039ZM4.62984 1.78934C2.92383 1.78934 1.63504 3.04395 1.63504 4.48039C1.63504 5.63195 2.12388 6.70409 2.9118 7.69543C3.70127 8.68872 4.76352 9.5651 5.83658 10.3085C6.24262 10.5898 6.62507 10.8291 6.95221 10.9957C7.30354 11.1747 7.50704 11.225 7.58362 11.225C7.6602 11.225 7.8637 11.1747 8.21503 10.9957C8.54217 10.8291 8.92462 10.5898 9.33067 10.3085C10.4037 9.5651 11.466 8.68872 12.2554 7.69543C13.0434 6.70409 13.5322 5.63195 13.5322 4.48039C13.5322 3.04395 12.2434 1.78934 10.5374 1.78934C9.55761 1.78934 8.64271 2.37469 8.07146 3.11765C7.95498 3.26915 7.77472 3.35793 7.58362 3.35793C7.39252 3.35793 7.21227 3.26915 7.09578 3.11765C6.52453 2.37469 5.60964 1.78934 4.62984 1.78934Z" fill="#323142"/>
</svg>
